<svg width="2199" height="1409" xmlns="http://www.w3.org/2000/svg" xmlns:xlink="http://www.w3.org/1999/xlink" overflow="hidden"><defs><clipPath id="clip0"><rect x="120" y="281" width="2199" height="1409"/></clipPath><clipPath id="clip1"><rect x="203" y="994" width="130" height="128"/></clipPath><clipPath id="clip2"><rect x="203" y="994" width="130" height="128"/></clipPath><clipPath id="clip3"><rect x="203" y="994" width="130" height="128"/></clipPath></defs><g clip-path="url(#clip0)" transform="translate(-120 -281)"><path d="M120 306.799C120 292.551 131.551 281 145.799 281L2293.2 281C2307.45 281 2319 292.551 2319 306.799L2319 1664.2C2319 1678.45 2307.45 1690 2293.2 1690L145.799 1690C131.551 1690 120 1678.45 120 1664.2Z" fill="#FBE5D6" fill-rule="evenodd"/><path d="M570.5 578.104C570.5 564.516 581.516 553.5 595.104 553.5L2230.9 553.5C2244.48 553.5 2255.5 564.516 2255.5 578.104L2255.5 1454.9C2255.5 1468.48 2244.48 1479.5 2230.9 1479.5L595.104 1479.5C581.516 1479.5 570.5 1468.48 570.5 1454.9Z" stroke="#000000" stroke-width="4.58333" stroke-miterlimit="8" fill="#F2F2F2" fill-rule="evenodd"/><text font-family="Arial,Arial_MSFontService,sans-serif" font-weight="400" font-size="55" transform="matrix(1 0 0 1 669.326 672)">ADMM Impedance Board</text><path d="M1243.5 935.097C1243.5 932.558 1245.56 930.5 1248.1 930.5L2190.9 930.5C2193.44 930.5 2195.5 932.558 2195.5 935.097L2195.5 1098.9C2195.5 1101.44 2193.44 1103.5 2190.9 1103.5L1248.1 1103.5C1245.56 1103.5 1243.5 1101.44 1243.5 1098.9Z" stroke="#000000" stroke-width="4.58333" stroke-miterlimit="8" fill="#F4B183" fill-rule="evenodd"/><text font-family="Calibri,Calibri_MSFontService,sans-serif" font-weight="400" font-size="55" transform="matrix(1 0 0 1 1564.68 1034)">ÂµC (ESP32 S2)</text><path d="M1243.5 1248.1C1243.5 1245.56 1245.56 1243.5 1248.1 1243.5L1673.9 1243.5C1676.44 1243.5 1678.5 1245.56 1678.5 1248.1L1678.5 1411.9C1678.5 1414.44 1676.44 1416.5 1673.9 1416.5L1248.1 1416.5C1245.56 1416.5 1243.5 1414.44 1243.5 1411.9Z" stroke="#000000" stroke-width="4.58333" stroke-miterlimit="8" fill="#F4B183" fill-rule="evenodd"/><text font-family="Calibri,Calibri_MSFontService,sans-serif" font-weight="400" font-size="55" transform="matrix(1 0 0 1 1292.54 1348)">Current Source</text><path d="M1760.5 1247.1C1760.5 1244.56 1762.56 1242.5 1765.1 1242.5L2190.9 1242.5C2193.44 1242.5 2195.5 1244.56 2195.5 1247.1L2195.5 1410.9C2195.5 1413.44 2193.44 1415.5 2190.9 1415.5L1765.1 1415.5C1762.56 1415.5 1760.5 1413.44 1760.5 1410.9Z" stroke="#000000" stroke-width="4.58333" stroke-miterlimit="8" fill="#F4B183" fill-rule="evenodd"/><text font-family="Calibri,Calibri_MSFontService,sans-serif" font-weight="400" font-size="55" transform="matrix(1 0 0 1 1821.64 1347)">Receive Chain</text><path d="M671.5 935.096C671.5 932.558 673.558 930.5 676.096 930.5L1101.9 930.5C1104.44 930.5 1106.5 932.558 1106.5 935.096L1106.5 1098.9C1106.5 1101.44 1104.44 1103.5 1101.9 1103.5L676.096 1103.5C673.558 1103.5 671.5 1101.44 671.5 1098.9Z" stroke="#000000" stroke-width="4.58333" stroke-miterlimit="8" fill="#F4B183" fill-rule="evenodd"/><text font-family="Calibri,Calibri_MSFontService,sans-serif" font-weight="400" font-size="55" transform="matrix(1 0 0 1 745.18 1034)">USB to Serial</text><path d="M1760.5 621.096C1760.5 618.558 1762.56 616.5 1765.1 616.5L2190.9 616.5C2193.44 616.5 2195.5 618.558 2195.5 621.096L2195.5 784.904C2195.5 787.442 2193.44 789.5 2190.9 789.5L1765.1 789.5C1762.56 789.5 1760.5 787.442 1760.5 784.904Z" stroke="#000000" stroke-width="4.58333" stroke-miterlimit="8" fill="#DBDBDB" fill-rule="evenodd"/><text font-family="Calibri,Calibri_MSFontService,sans-serif" font-weight="400" font-size="55" transform="matrix(1 0 0 1 1806.46 721)">Optional GPIOs</text><path d="M675.5 1247.1C675.5 1244.56 677.558 1242.5 680.096 1242.5L1105.9 1242.5C1108.44 1242.5 1110.5 1244.56 1110.5 1247.1L1110.5 1410.9C1110.5 1413.44 1108.44 1415.5 1105.9 1415.5L680.096 1415.5C677.558 1415.5 675.5 1413.44 675.5 1410.9Z" stroke="#000000" stroke-width="4.58333" stroke-miterlimit="8" fill="#DBDBDB" fill-rule="evenodd"/><text font-family="Calibri,Calibri_MSFontService,sans-serif" font-weight="400" font-size="55" transform="matrix(1 0 0 1 712.302 1347)">Power over USB</text><path d="M355.5 994.063 648.604 994.063 648.604 1000.94 355.5 1000.94ZM644.021 983.75 671.521 997.5 644.021 1011.25Z" fill="#C55A11"/><path d="M3.97321e-06-3.4375 289.316-3.43717 289.316 3.43783-3.97321e-06 3.4375ZM284.733-13.7497 312.233 0.000360892 284.733 13.7503Z" fill="#C55A11" transform="matrix(-1 0 0 1 667.733 1037.5)"/><text font-family="Arial,Arial_MSFontService,sans-serif" font-weight="400" font-size="55" transform="matrix(1 0 0 1 415.826 991)">D<tspan font-size="55" x="39.5313" y="0">ata</tspan></text><path d="M357.5 1119.06 623.927 1119.06 623.927 1328.86 620.49 1325.43 652.024 1325.43 652.024 1332.3 617.052 1332.3 617.052 1122.5 620.49 1125.94 357.5 1125.94ZM647.441 1315.11 674.941 1328.86 647.441 1342.61Z" fill="#C55A11"/><text font-family="Arial,Arial_MSFontService,sans-serif" font-weight="400" font-size="55" transform="matrix(1 0 0 1 390.861 1108)">Power</text><path d="M184.5 975.043C184.5 972.534 186.534 970.5 189.044 970.5L350.956 970.5C353.466 970.5 355.5 972.534 355.5 975.043L355.5 1138.96C355.5 1141.47 353.466 1143.5 350.956 1143.5L189.044 1143.5C186.534 1143.5 184.5 1141.47 184.5 1138.96Z" stroke="#000000" stroke-width="4.58333" stroke-miterlimit="8" fill="#F2F2F2" fill-rule="evenodd"/><g clip-path="url(#clip1)"><g clip-path="url(#clip2)"><g clip-path="url(#clip3)"><path d="M268 1108.97C265.408 1108.97 263.205 1108.07 261.39 1106.25 259.574 1104.44 258.667 1102.23 258.667 1099.64 258.667 1097.88 259.156 1096.25 260.133 1094.77 261.111 1093.29 262.4 1092.17 264 1091.39L264 1078 248 1078C245.306 1078 243.026 1077.07 241.159 1075.2 239.292 1073.33 238.359 1071.05 238.359 1068.36L238.359 1056.61C236.793 1055.94 235.513 1054.89 234.518 1053.44 233.523 1051.99 233.026 1050.3 233.026 1048.36 233.026 1045.77 233.933 1043.56 235.749 1041.75 237.564 1039.93 239.768 1039.03 242.359 1039.03 244.95 1039.03 247.154 1039.93 248.969 1041.75 250.785 1043.56 251.692 1045.77 251.692 1048.36 251.692 1050.3 251.195 1051.97 250.2 1053.36 249.205 1054.75 247.925 1055.83 246.359 1056.61L246.359 1068.36C246.359 1068.77 246.53 1069.15 246.872 1069.49 247.214 1069.83 247.59 1070 248 1070L264 1070 264 1026.72 254.667 1026.72 268 1008.97 281.333 1026.72 272 1026.72 272 1070 288 1070C288.41 1070 288.786 1069.83 289.128 1069.49 289.47 1069.15 289.641 1068.77 289.641 1068.36L289.641 1057.69 284.308 1057.69 284.308 1039.03 302.974 1039.03 302.974 1057.69 297.641 1057.69 297.641 1068.36C297.641 1071.05 296.708 1073.33 294.841 1075.2 292.974 1077.07 290.694 1078 288 1078L272 1078 272 1091.39C273.655 1092.11 274.957 1093.21 275.908 1094.69 276.858 1096.17 277.333 1097.82 277.333 1099.64 277.333 1102.23 276.425 1104.44 274.61 1106.25 272.795 1108.07 270.591 1108.97 268 1108.97Z"/></g></g></g><path d="M1110.5 994.063 1221.07 994.063 1221.07 1000.94 1110.5 1000.94ZM1216.49 983.75 1243.99 997.5 1216.49 1011.25Z" fill="#C55A11"/><path d="M9.29361e-06-3.4375 110.569-3.4372 110.569 3.4378-9.29361e-06 3.4375ZM105.986-13.7497 133.486 0.000360892 105.986 13.7503Z" fill="#C55A11" transform="matrix(-1 0 0 1 1243.99 1037.5)"/><path d="M1463.94 1103.49 1464.13 1220.95 1457.25 1220.96 1457.06 1103.51ZM1474.43 1216.35 1460.73 1243.87 1446.93 1216.4Z" fill="#C55A11"/><path d="M3.4375-0.00554113 3.62683 117.453-3.24816 117.464-3.4375 0.00554113ZM13.9319 112.853 0.22628 140.375-13.568 112.897Z" fill="#C55A11" transform="matrix(1 0 0 -1 1976.5 1243.87)"/><path d="M1370.94 1415.49 1371.13 1532.95 1364.25 1532.96 1364.06 1415.51ZM1381.43 1528.35 1367.73 1555.88 1353.93 1528.4Z" fill="#C55A11"/><path d="M3.4375-0.00554113 3.62683 117.453-3.24816 117.464-3.4375 0.00554113ZM13.9319 112.853 0.22628 140.375-13.568 112.897Z" fill="#C55A11" transform="matrix(1 0 0 -1 1528.5 1555.87)"/><path d="M3.4375-0.00554113 3.62683 117.453-3.24816 117.464-3.4375 0.00554113ZM13.9319 112.853 0.22628 140.375-13.568 112.897Z" fill="#C55A11" transform="matrix(1 0 0 -1 1900.5 1555.87)"/><path d="M3.4375-0.00554113 3.62683 117.453-3.24816 117.464-3.4375 0.00554113ZM13.9319 112.853 0.22628 140.375-13.568 112.897Z" fill="#C55A11" transform="matrix(1 0 0 -1 2061.5 1555.87)"/><path d="M1328.08 1600.69 1338.82 1600.69 1338.53 1602C1337.85 1602.15 1337.36 1602.31 1337.06 1602.49 1336.77 1602.66 1336.5 1602.93 1336.27 1603.29 1336.04 1603.65 1335.8 1604.21 1335.55 1604.97 1335.3 1605.73 1334.98 1606.97 1334.61 1608.69L1328.86 1634.87 1335.47 1634.87C1336.67 1634.87 1337.61 1634.76 1338.3 1634.52 1338.99 1634.29 1339.64 1633.87 1340.26 1633.25 1340.88 1632.63 1341.48 1631.79 1342.07 1630.74 1342.66 1629.68 1343.26 1628.36 1343.87 1626.79L1346.48 1626.79 1343.76 1637.34 1321.04 1637.34 1321.34 1636.03C1322.02 1635.92 1322.53 1635.75 1322.87 1635.5 1323.21 1635.26 1323.5 1634.93 1323.73 1634.5 1323.96 1634.07 1324.18 1633.54 1324.37 1632.93 1324.57 1632.31 1324.87 1631.11 1325.26 1629.34L1329.83 1608.66C1330.22 1606.87 1330.42 1605.43 1330.42 1604.34 1330.42 1603.5 1330.21 1602.91 1329.79 1602.58 1329.37 1602.25 1328.7 1602.06 1327.79 1602Z" fill-rule="evenodd"/><text fill="#000000" fill-opacity="0" font-family="Arial,Arial_MSFontService,sans-serif" font-size="36.6577" x="1321.04" y="1632.76">ğ¿</text><path d="M1401.84 1628.63C1402.81 1628.63 1403.55 1628.95 1404.08 1629.58 1404.61 1630.21 1404.87 1631.04 1404.87 1632.07 1404.87 1632.65 1404.78 1633.18 1404.6 1633.63L1404.87 1633.75C1406.18 1631.99 1407.46 1630.7 1408.71 1629.87 1409.95 1629.04 1411.23 1628.63 1412.54 1628.63 1413.04 1628.63 1413.51 1628.66 1413.94 1628.71 1414.38 1628.76 1414.8 1628.83 1415.2 1628.9L1414.21 1633.63 1411.94 1633.63C1411.87 1632.85 1411.71 1632.29 1411.44 1631.95 1411.17 1631.61 1410.79 1631.44 1410.28 1631.44 1409.98 1631.43 1409.63 1631.52 1409.24 1631.72 1408.85 1631.91 1408.44 1632.19 1408 1632.56 1407.57 1632.92 1407.13 1633.35 1406.71 1633.85 1406.28 1634.34 1405.87 1634.88 1405.48 1635.47 1405.1 1636.05 1404.77 1636.67 1404.48 1637.33 1404.19 1637.99 1403.98 1638.65 1403.83 1639.31L1401.84 1648.57 1398.01 1648.57 1400.94 1635.84C1401.13 1635.08 1401.25 1634.46 1401.32 1633.96 1401.4 1633.47 1401.43 1633.05 1401.43 1632.71 1401.43 1631.76 1401.05 1631.29 1400.28 1631.29 1400.03 1631.29 1399.79 1631.34 1399.55 1631.43 1399.31 1631.53 1399.06 1631.68 1398.79 1631.87 1398.53 1632.07 1398.25 1632.32 1397.94 1632.62 1397.62 1632.92 1397.27 1633.27 1396.88 1633.67L1395.53 1632.4C1396.18 1631.74 1396.78 1631.17 1397.32 1630.69 1397.86 1630.22 1398.38 1629.83 1398.87 1629.52 1399.37 1629.21 1399.86 1628.99 1400.34 1628.85 1400.82 1628.7 1401.32 1628.63 1401.84 1628.63ZM1375.94 1628.63C1376.88 1628.63 1377.63 1628.95 1378.19 1629.58 1378.75 1630.21 1379.03 1631.05 1379.03 1632.11 1379.03 1632.68 1378.97 1633.32 1378.87 1634.02 1378.77 1634.73 1378.59 1635.51 1378.34 1636.39 1377.85 1638.17 1377.46 1639.73 1377.17 1641.07 1376.88 1642.41 1376.74 1643.4 1376.74 1644.02 1376.74 1644.8 1376.89 1645.39 1377.2 1645.77 1377.51 1646.15 1378 1646.35 1378.67 1646.35 1379.29 1646.35 1379.94 1646.12 1380.64 1645.66 1381.33 1645.21 1382 1644.62 1382.64 1643.9 1383.28 1643.17 1383.85 1642.37 1384.35 1641.47 1384.85 1640.58 1385.22 1639.7 1385.45 1638.83L1387.6 1629.04 1391.45 1629.04 1388.44 1641.8C1388.28 1642.46 1388.17 1643.05 1388.11 1643.57 1388.04 1644.09 1388.01 1644.54 1388.01 1644.9 1388.01 1645.4 1388.1 1645.75 1388.28 1645.98 1388.47 1646.2 1388.76 1646.31 1389.16 1646.31 1389.41 1646.31 1389.65 1646.26 1389.88 1646.17 1390.12 1646.08 1390.37 1645.94 1390.64 1645.74 1390.9 1645.55 1391.19 1645.29 1391.51 1644.99 1391.82 1644.68 1392.17 1644.31 1392.56 1643.89L1393.91 1645.17C1393.26 1645.84 1392.66 1646.41 1392.11 1646.88 1391.56 1647.36 1391.04 1647.75 1390.55 1648.06 1390.05 1648.36 1389.56 1648.58 1389.07 1648.72 1388.59 1648.86 1388.08 1648.92 1387.56 1648.92 1386.62 1648.92 1385.89 1648.62 1385.36 1648.02 1384.84 1647.41 1384.57 1646.58 1384.57 1645.53 1384.57 1645.25 1384.59 1644.98 1384.63 1644.7 1384.67 1644.42 1384.74 1644.15 1384.85 1643.89L1384.61 1643.81C1383.32 1645.51 1382.07 1646.79 1380.85 1647.65 1379.63 1648.5 1378.37 1648.92 1377.05 1648.92 1375.67 1648.92 1374.63 1648.56 1373.94 1647.83 1373.24 1647.1 1372.89 1646.05 1372.89 1644.69 1372.89 1644.33 1372.95 1643.85 1373.08 1643.22 1373.2 1642.6 1373.35 1641.9 1373.54 1641.13 1373.72 1640.36 1373.91 1639.56 1374.12 1638.72 1374.33 1637.88 1374.53 1637.07 1374.71 1636.3 1374.89 1635.52 1375.04 1634.82 1375.17 1634.19 1375.29 1633.56 1375.35 1633.06 1375.35 1632.71 1375.35 1631.76 1374.96 1631.29 1374.18 1631.29 1373.93 1631.29 1373.69 1631.34 1373.46 1631.43 1373.22 1631.53 1372.97 1631.68 1372.71 1631.87 1372.44 1632.07 1372.15 1632.32 1371.84 1632.62 1371.53 1632.92 1371.17 1633.27 1370.78 1633.67L1369.46 1632.4C1370.16 1631.7 1370.79 1631.11 1371.34 1630.62 1371.89 1630.14 1372.42 1629.75 1372.91 1629.46 1373.41 1629.17 1373.9 1628.96 1374.38 1628.83 1374.86 1628.7 1375.38 1628.63 1375.94 1628.63ZM1363.19 1628.63C1364.14 1628.63 1365.02 1628.68 1365.83 1628.79 1366.65 1628.89 1367.49 1629.05 1368.36 1629.28L1367.27 1634.06 1364.96 1634.06C1364.95 1633.38 1364.9 1632.82 1364.82 1632.37 1364.73 1631.92 1364.6 1631.57 1364.41 1631.31 1364.22 1631.05 1363.97 1630.86 1363.66 1630.75 1363.36 1630.64 1362.98 1630.58 1362.54 1630.56 1361.84 1630.56 1361.16 1630.72 1360.52 1631.03 1359.88 1631.35 1359.28 1631.78 1358.72 1632.33 1358.17 1632.89 1357.66 1633.53 1357.21 1634.28 1356.75 1635.02 1356.36 1635.82 1356.04 1636.68 1355.71 1637.54 1355.46 1638.43 1355.29 1639.36 1355.11 1640.29 1355.02 1641.22 1355.02 1642.15 1355.02 1643.53 1355.29 1644.58 1355.84 1645.3 1356.39 1646.02 1357.21 1646.39 1358.3 1646.39 1358.91 1646.39 1359.48 1646.33 1360 1646.22 1360.52 1646.11 1361.03 1645.92 1361.53 1645.66 1362.02 1645.4 1362.53 1645.06 1363.06 1644.64 1363.59 1644.21 1364.17 1643.69 1364.81 1643.06 1365.05 1643.33 1365.29 1643.58 1365.52 1643.84 1365.75 1644.09 1365.98 1644.35 1366.23 1644.61 1364.83 1646.07 1363.42 1647.15 1362.01 1647.86 1360.61 1648.57 1359.1 1648.92 1357.48 1648.92 1355.46 1648.92 1353.92 1648.34 1352.84 1647.16 1351.77 1645.98 1351.23 1644.3 1351.23 1642.11 1351.23 1640.88 1351.37 1639.7 1351.64 1638.56 1351.92 1637.42 1352.31 1636.35 1352.82 1635.35 1353.34 1634.35 1353.95 1633.44 1354.67 1632.62 1355.39 1631.8 1356.19 1631.09 1357.07 1630.5 1357.96 1629.9 1358.91 1629.45 1359.94 1629.12 1360.97 1628.79 1362.05 1628.63 1363.19 1628.63Z" fill-rule="evenodd"/><text fill="#000000" fill-opacity="0" font-family="Arial,Arial_MSFontService,sans-serif" font-size="20.293" x="1351.23" y="1646.39">ğ‘ğ‘¢ğ‘Ÿ</text><path d="M1516.64 1601.87C1515.7 1601.87 1514.69 1601.91 1513.64 1601.98L1510.2 1617.53 1513.37 1617.53C1515.96 1617.53 1518.01 1617.18 1519.52 1616.48 1521.02 1615.79 1522.21 1614.64 1523.09 1613.05 1523.97 1611.45 1524.41 1609.73 1524.41 1607.89 1524.41 1607.12 1524.33 1606.44 1524.19 1605.84 1524.05 1605.24 1523.86 1604.74 1523.63 1604.34 1523.39 1603.95 1523.1 1603.6 1522.74 1603.3 1522.38 1602.99 1521.93 1602.73 1521.4 1602.51 1520.86 1602.28 1520.24 1602.12 1519.53 1602.02 1518.82 1601.92 1517.86 1601.87 1516.64 1601.87ZM1505.87 1599.51 1517.83 1599.51C1519.72 1599.51 1521.27 1599.62 1522.47 1599.85 1523.67 1600.07 1524.7 1600.41 1525.55 1600.85 1526.4 1601.3 1527.11 1601.88 1527.68 1602.59 1528.25 1603.29 1528.68 1604.09 1528.97 1604.98 1529.26 1605.86 1529.4 1606.81 1529.4 1607.81 1529.4 1610.57 1528.56 1612.91 1526.88 1614.85 1525.19 1616.78 1522.71 1618.25 1519.44 1619.25L1519.44 1619.55C1520.3 1620.19 1520.99 1620.96 1521.52 1621.85 1522.05 1622.75 1522.47 1623.99 1522.79 1625.59L1523.41 1628.7C1523.61 1629.69 1523.83 1630.57 1524.08 1631.36 1524.33 1632.15 1524.63 1632.78 1524.98 1633.24 1525.33 1633.71 1525.73 1634.06 1526.16 1634.29 1526.6 1634.52 1527.24 1634.71 1528.08 1634.85L1527.82 1636.17 1520.38 1636.17C1519.8 1634.58 1519.29 1632.68 1518.85 1630.48L1517.66 1624.78C1517.47 1623.8 1517.23 1622.97 1516.95 1622.3 1516.68 1621.63 1516.34 1621.11 1515.96 1620.74 1515.57 1620.37 1515.13 1620.13 1514.62 1620.02 1514.11 1619.9 1513.48 1619.84 1512.75 1619.84L1509.69 1619.84 1507.81 1628.35C1507.65 1629.05 1507.54 1629.61 1507.47 1630.02 1507.41 1630.43 1507.36 1630.86 1507.31 1631.32 1507.27 1631.78 1507.24 1632.19 1507.24 1632.54 1507.24 1633.1 1507.33 1633.53 1507.51 1633.85 1507.69 1634.16 1507.96 1634.39 1508.32 1634.53 1508.68 1634.67 1509.29 1634.78 1510.17 1634.85L1509.88 1636.17 1498.84 1636.17 1499.13 1634.85C1499.81 1634.75 1500.32 1634.57 1500.66 1634.33 1501.01 1634.09 1501.29 1633.75 1501.52 1633.32 1501.76 1632.89 1501.97 1632.37 1502.17 1631.75 1502.37 1631.13 1502.66 1629.94 1503.06 1628.17L1507.62 1607.49C1508.01 1605.7 1508.21 1604.28 1508.21 1603.24 1508.21 1602.37 1508.01 1601.76 1507.59 1601.42 1507.18 1601.08 1506.51 1600.88 1505.58 1600.83Z" fill-rule="evenodd"/><text fill="#000000" fill-opacity="0" font-family="Arial,Arial_MSFontService,sans-serif" font-size="36.6577" x="1498.84" y="1631.59">ğ‘…</text><path d="M1584.43 1627.46C1585.39 1627.46 1586.13 1627.77 1586.66 1628.4 1587.19 1629.04 1587.45 1629.87 1587.45 1630.89 1587.45 1631.48 1587.36 1632 1587.18 1632.46L1587.45 1632.57C1588.77 1630.82 1590.05 1629.52 1591.29 1628.7 1592.53 1627.87 1593.81 1627.46 1595.13 1627.46 1595.62 1627.46 1596.09 1627.48 1596.53 1627.53 1596.96 1627.59 1597.38 1627.65 1597.79 1627.73L1596.79 1632.46 1594.52 1632.46C1594.46 1631.68 1594.29 1631.12 1594.03 1630.78 1593.76 1630.44 1593.37 1630.27 1592.86 1630.27 1592.56 1630.26 1592.22 1630.35 1591.83 1630.54 1591.44 1630.74 1591.02 1631.02 1590.59 1631.38 1590.15 1631.75 1589.72 1632.18 1589.29 1632.67 1588.86 1633.17 1588.45 1633.71 1588.07 1634.29 1587.68 1634.88 1587.35 1635.5 1587.06 1636.16 1586.78 1636.82 1586.56 1637.48 1586.42 1638.14L1584.43 1647.4 1580.6 1647.4 1583.53 1634.66C1583.71 1633.91 1583.84 1633.28 1583.91 1632.79 1583.98 1632.29 1584.02 1631.88 1584.02 1631.54 1584.02 1630.59 1583.63 1630.11 1582.86 1630.11 1582.62 1630.11 1582.37 1630.16 1582.13 1630.26 1581.89 1630.36 1581.64 1630.5 1581.38 1630.7 1581.12 1630.89 1580.83 1631.14 1580.52 1631.44 1580.21 1631.74 1579.86 1632.09 1579.46 1632.5L1578.12 1631.23C1578.77 1630.56 1579.36 1629.99 1579.9 1629.52 1580.44 1629.04 1580.96 1628.65 1581.46 1628.34 1581.95 1628.04 1582.44 1627.81 1582.92 1627.67 1583.4 1627.53 1583.9 1627.46 1584.43 1627.46ZM1558.52 1627.46C1559.46 1627.46 1560.21 1627.77 1560.77 1628.4 1561.33 1629.04 1561.61 1629.88 1561.61 1630.93 1561.61 1631.51 1561.56 1632.14 1561.45 1632.85 1561.35 1633.55 1561.17 1634.34 1560.93 1635.21 1560.43 1636.99 1560.04 1638.56 1559.75 1639.9 1559.47 1641.24 1559.32 1642.22 1559.32 1642.85 1559.32 1643.63 1559.48 1644.21 1559.78 1644.59 1560.09 1644.98 1560.58 1645.17 1561.26 1645.17 1561.87 1645.17 1562.52 1644.94 1563.22 1644.49 1563.92 1644.03 1564.58 1643.44 1565.22 1642.72 1565.86 1642 1566.43 1641.19 1566.93 1640.3 1567.43 1639.41 1567.8 1638.52 1568.04 1637.65L1570.18 1627.87 1574.03 1627.87 1571.02 1640.62C1570.87 1641.28 1570.76 1641.88 1570.69 1642.4 1570.63 1642.92 1570.59 1643.36 1570.59 1643.73 1570.59 1644.22 1570.68 1644.58 1570.87 1644.8 1571.05 1645.02 1571.34 1645.13 1571.75 1645.13 1571.99 1645.13 1572.23 1645.09 1572.47 1645 1572.7 1644.9 1572.95 1644.76 1573.22 1644.57 1573.49 1644.37 1573.78 1644.12 1574.09 1643.81 1574.4 1643.51 1574.75 1643.14 1575.14 1642.71L1576.49 1644C1575.84 1644.66 1575.24 1645.23 1574.7 1645.71 1574.15 1646.18 1573.63 1646.57 1573.13 1646.88 1572.64 1647.19 1572.15 1647.41 1571.66 1647.54 1571.17 1647.68 1570.67 1647.75 1570.14 1647.75 1569.21 1647.75 1568.47 1647.45 1567.95 1646.84 1567.42 1646.24 1567.16 1645.41 1567.16 1644.35 1567.16 1644.08 1567.18 1643.8 1567.21 1643.52 1567.25 1643.24 1567.33 1642.97 1567.43 1642.71L1567.2 1642.63C1565.91 1644.34 1564.65 1645.62 1563.44 1646.47 1562.22 1647.32 1560.95 1647.75 1559.64 1647.75 1558.26 1647.75 1557.22 1647.38 1556.52 1646.66 1555.82 1645.93 1555.48 1644.88 1555.48 1643.51 1555.48 1643.16 1555.54 1642.67 1555.66 1642.05 1555.79 1641.42 1555.94 1640.72 1556.12 1639.96 1556.3 1639.19 1556.5 1638.38 1556.71 1637.54 1556.92 1636.7 1557.11 1635.9 1557.29 1635.12 1557.48 1634.35 1557.63 1633.64 1557.75 1633.01 1557.88 1632.38 1557.94 1631.89 1557.94 1631.54 1557.94 1630.59 1557.55 1630.11 1556.77 1630.11 1556.52 1630.11 1556.28 1630.16 1556.04 1630.26 1555.81 1630.36 1555.56 1630.5 1555.29 1630.7 1555.02 1630.89 1554.73 1631.14 1554.42 1631.44 1554.11 1631.74 1553.76 1632.09 1553.37 1632.5L1552.04 1631.23C1552.74 1630.52 1553.37 1629.93 1553.92 1629.45 1554.48 1628.97 1555 1628.58 1555.5 1628.29 1555.99 1627.99 1556.48 1627.78 1556.96 1627.65 1557.44 1627.52 1557.96 1627.46 1558.52 1627.46ZM1545.77 1627.46C1546.72 1627.46 1547.6 1627.51 1548.42 1627.61 1549.23 1627.72 1550.07 1627.88 1550.95 1628.1L1549.85 1632.89 1547.55 1632.89C1547.53 1632.21 1547.48 1631.65 1547.4 1631.2 1547.32 1630.75 1547.18 1630.39 1546.99 1630.13 1546.8 1629.87 1546.55 1629.69 1546.25 1629.58 1545.94 1629.46 1545.57 1629.4 1545.12 1629.39 1544.42 1629.39 1543.75 1629.55 1543.1 1629.86 1542.46 1630.17 1541.86 1630.6 1541.31 1631.16 1540.75 1631.71 1540.25 1632.36 1539.79 1633.1 1539.34 1633.84 1538.95 1634.64 1538.62 1635.5 1538.3 1636.36 1538.04 1637.26 1537.87 1638.19 1537.69 1639.12 1537.61 1640.05 1537.61 1640.97 1537.61 1642.35 1537.88 1643.4 1538.43 1644.13 1538.97 1644.85 1539.79 1645.21 1540.89 1645.21 1541.5 1645.21 1542.06 1645.15 1542.59 1645.04 1543.11 1644.93 1543.61 1644.75 1544.11 1644.49 1544.6 1644.23 1545.12 1643.89 1545.64 1643.46 1546.17 1643.04 1546.75 1642.51 1547.39 1641.89 1547.64 1642.15 1547.88 1642.41 1548.1 1642.66 1548.33 1642.92 1548.57 1643.17 1548.82 1643.43 1547.41 1644.89 1546 1645.98 1544.6 1646.68 1543.19 1647.39 1541.68 1647.75 1540.07 1647.75 1538.05 1647.75 1536.5 1647.16 1535.43 1645.98 1534.35 1644.8 1533.82 1643.12 1533.82 1640.93 1533.82 1639.71 1533.95 1638.53 1534.23 1637.39 1534.5 1636.25 1534.89 1635.18 1535.41 1634.18 1535.92 1633.17 1536.54 1632.26 1537.25 1631.44 1537.97 1630.62 1538.77 1629.91 1539.66 1629.32 1540.54 1628.73 1541.5 1628.27 1542.53 1627.94 1543.56 1627.62 1544.64 1627.46 1545.77 1627.46Z" fill-rule="evenodd"/><text fill="#000000" fill-opacity="0" font-family="Arial,Arial_MSFontService,sans-serif" font-size="20.293" x="1533.82" y="1645.21">ğ‘ğ‘¢ğ‘Ÿ</text><path d="M1858.5 1599.51 1869.24 1599.51 1868.95 1600.83C1868.27 1600.97 1867.78 1601.13 1867.48 1601.31 1867.19 1601.49 1866.92 1601.76 1866.69 1602.12 1866.46 1602.47 1866.22 1603.03 1865.97 1603.79 1865.72 1604.56 1865.4 1605.8 1865.03 1607.51L1859.28 1633.7 1865.89 1633.7C1867.09 1633.7 1868.03 1633.58 1868.72 1633.35 1869.41 1633.12 1870.06 1632.69 1870.68 1632.07 1871.3 1631.46 1871.9 1630.62 1872.49 1629.56 1873.08 1628.51 1873.68 1627.19 1874.29 1625.61L1876.9 1625.61 1874.18 1636.17 1851.46 1636.17 1851.76 1634.85C1852.44 1634.75 1852.95 1634.57 1853.29 1634.33 1853.63 1634.09 1853.92 1633.75 1854.15 1633.32 1854.38 1632.89 1854.6 1632.37 1854.79 1631.75 1854.99 1631.13 1855.29 1629.94 1855.68 1628.17L1860.25 1607.49C1860.64 1605.7 1860.84 1604.26 1860.84 1603.16 1860.84 1602.32 1860.63 1601.74 1860.21 1601.4 1859.79 1601.07 1859.12 1600.88 1858.21 1600.83Z" fill-rule="evenodd"/><text fill="#000000" fill-opacity="0" font-family="Arial,Arial_MSFontService,sans-serif" font-size="36.6577" x="1851.46" y="1631.59">ğ¿</text><path d="M1895.42 1630.07C1894.63 1630.07 1893.9 1630.31 1893.23 1630.79 1892.55 1631.26 1891.84 1631.94 1891.07 1632.83 1890.72 1633.24 1890.39 1633.65 1890.09 1634.06 1889.79 1634.46 1889.52 1634.9 1889.28 1635.38 1889.04 1635.85 1888.82 1636.38 1888.64 1636.96 1888.45 1637.54 1888.28 1638.2 1888.14 1638.96 1887.95 1639.86 1887.81 1640.61 1887.71 1641.23 1887.6 1641.84 1887.55 1642.42 1887.55 1642.96 1887.55 1644.02 1887.8 1644.76 1888.28 1645.2 1888.77 1645.64 1889.56 1645.85 1890.64 1645.85 1891.39 1645.85 1892.1 1645.69 1892.76 1645.36 1893.41 1645.02 1894.01 1644.57 1894.54 1644 1895.08 1643.43 1895.55 1642.76 1895.97 1642 1896.39 1641.24 1896.73 1640.42 1897.01 1639.56 1897.29 1638.69 1897.51 1637.8 1897.66 1636.89 1897.81 1635.98 1897.88 1635.09 1897.88 1634.23 1897.88 1632.84 1897.69 1631.8 1897.31 1631.11 1896.92 1630.42 1896.29 1630.07 1895.42 1630.07ZM1917.77 1629.39C1917.04 1629.39 1916.35 1629.55 1915.72 1629.88 1915.08 1630.2 1914.49 1630.65 1913.96 1631.23 1913.42 1631.8 1912.95 1632.48 1912.52 1633.26 1912.1 1634.04 1911.74 1634.88 1911.45 1635.78 1911.15 1636.68 1910.93 1637.61 1910.77 1638.59 1910.62 1639.57 1910.54 1640.54 1910.54 1641.52 1910.54 1643.02 1910.85 1644.12 1911.47 1644.83 1912.09 1645.54 1913.03 1645.89 1914.29 1645.89 1914.99 1645.89 1915.66 1645.72 1916.28 1645.38 1916.91 1645.03 1917.48 1644.57 1918 1643.98 1918.52 1643.39 1918.99 1642.71 1919.4 1641.92 1919.81 1641.13 1920.16 1640.29 1920.44 1639.39 1920.73 1638.49 1920.95 1637.56 1921.1 1636.61 1921.25 1635.65 1921.32 1634.72 1921.32 1633.8 1921.32 1632.36 1921.03 1631.26 1920.46 1630.51 1919.89 1629.76 1918.99 1629.39 1917.77 1629.39ZM1918.14 1627.46C1919.31 1627.46 1920.33 1627.65 1921.21 1628.02 1922.09 1628.4 1922.82 1628.91 1923.41 1629.56 1924 1630.2 1924.44 1630.96 1924.73 1631.83 1925.02 1632.7 1925.17 1633.63 1925.17 1634.62 1925.17 1636.6 1924.88 1638.4 1924.29 1640.01 1923.7 1641.61 1922.89 1642.99 1921.86 1644.15 1920.82 1645.3 1919.61 1646.19 1918.21 1646.81 1916.81 1647.44 1915.29 1647.75 1913.65 1647.75 1912.56 1647.75 1911.59 1647.59 1910.73 1647.26 1909.88 1646.94 1909.15 1646.47 1908.55 1645.85 1907.95 1645.24 1907.49 1644.5 1907.17 1643.64 1906.85 1642.77 1906.69 1641.79 1906.69 1640.7 1906.69 1638.85 1906.98 1637.12 1907.56 1635.51 1908.14 1633.9 1908.94 1632.51 1909.96 1631.31 1910.99 1630.12 1912.19 1629.18 1913.59 1628.49 1914.98 1627.8 1916.5 1627.46 1918.14 1627.46ZM1886.36 1627.46C1887.31 1627.46 1888.05 1627.77 1888.58 1628.4 1889.1 1629.04 1889.37 1629.87 1889.37 1630.89 1889.37 1631.19 1889.34 1631.48 1889.3 1631.75 1889.25 1632.03 1889.17 1632.3 1889.06 1632.57L1889.33 1632.71C1890.6 1630.93 1891.86 1629.6 1893.09 1628.75 1894.32 1627.89 1895.61 1627.46 1896.97 1627.46 1898.51 1627.46 1899.7 1628.02 1900.53 1629.14 1901.36 1630.26 1901.77 1631.89 1901.77 1634.04 1901.77 1635.91 1901.48 1637.68 1900.9 1639.34 1900.32 1641 1899.54 1642.46 1898.55 1643.71 1897.56 1644.96 1896.41 1645.94 1895.1 1646.67 1893.79 1647.39 1892.41 1647.75 1890.95 1647.75 1889.93 1647.75 1889.05 1647.65 1888.3 1647.45 1887.55 1647.24 1886.93 1647 1886.44 1646.71 1886.32 1647.22 1886.19 1647.75 1886.06 1648.3 1885.92 1648.84 1885.79 1649.37 1885.67 1649.88 1885.54 1650.39 1885.44 1650.85 1885.36 1651.28 1885.29 1651.71 1885.25 1652.06 1885.25 1652.32 1885.25 1652.55 1885.28 1652.75 1885.35 1652.91 1885.43 1653.06 1885.56 1653.19 1885.74 1653.3 1885.93 1653.4 1886.18 1653.48 1886.5 1653.54 1886.81 1653.6 1887.2 1653.65 1887.67 1653.69L1887.61 1654.98 1880.73 1654.98 1885.5 1634.62C1885.66 1633.91 1885.77 1633.31 1885.83 1632.83 1885.9 1632.35 1885.93 1631.92 1885.93 1631.54 1885.93 1630.59 1885.55 1630.11 1884.78 1630.11 1884.54 1630.11 1884.31 1630.16 1884.07 1630.26 1883.84 1630.36 1883.59 1630.5 1883.32 1630.7 1883.06 1630.89 1882.76 1631.14 1882.44 1631.44 1882.12 1631.74 1881.77 1632.09 1881.38 1632.5L1880.03 1631.23C1880.68 1630.57 1881.28 1630.01 1881.82 1629.54 1882.36 1629.06 1882.88 1628.67 1883.38 1628.36 1883.88 1628.06 1884.37 1627.83 1884.85 1627.68 1885.32 1627.53 1885.83 1627.46 1886.36 1627.46ZM1936.55 1622.91 1939.6 1622.91 1938.48 1627.87 1945.13 1627.87 1944.68 1630.03 1938.06 1630.03 1936.06 1638.22C1935.93 1638.76 1935.83 1639.26 1935.74 1639.69 1935.66 1640.13 1935.59 1640.52 1935.54 1640.87 1935.48 1641.23 1935.45 1641.54 1935.43 1641.83 1935.41 1642.12 1935.4 1642.38 1935.4 1642.63 1935.4 1643.41 1935.56 1644.03 1935.89 1644.47 1936.21 1644.91 1936.75 1645.13 1937.49 1645.13 1938.11 1645.13 1938.78 1644.9 1939.48 1644.44 1940.18 1643.98 1940.98 1643.25 1941.88 1642.26L1943.23 1643.63C1942.57 1644.37 1941.94 1645 1941.34 1645.52 1940.74 1646.04 1940.15 1646.47 1939.58 1646.8 1939.01 1647.13 1938.44 1647.37 1937.88 1647.52 1937.32 1647.67 1936.75 1647.75 1936.16 1647.75 1934.61 1647.75 1933.46 1647.38 1932.69 1646.66 1931.93 1645.93 1931.55 1644.85 1931.55 1643.43 1931.55 1642.95 1931.59 1642.42 1931.66 1641.84 1931.73 1641.26 1931.83 1640.7 1931.96 1640.15L1934.29 1630.03 1930.93 1630.03 1931.32 1628.53C1932.1 1628.53 1932.71 1628.46 1933.14 1628.31 1933.58 1628.16 1933.95 1627.95 1934.25 1627.69 1934.44 1627.51 1934.63 1627.28 1934.81 1627.02 1935 1626.75 1935.18 1626.43 1935.36 1626.05 1935.54 1625.67 1935.73 1625.23 1935.92 1624.71 1936.11 1624.2 1936.32 1623.6 1936.55 1622.91Z" fill-rule="evenodd"/><text fill="#000000" fill-opacity="0" font-family="Arial,Arial_MSFontService,sans-serif" font-size="32.0703" x="1880.03" y="1650.97">ğ‘ğ‘œğ‘¡</text><path d="M2047.34 1600.7C2046.39 1600.7 2045.39 1600.73 2044.33 1600.81L2040.89 1616.36 2044.06 1616.36C2046.66 1616.36 2048.71 1616.01 2050.21 1615.31 2051.72 1614.61 2052.91 1613.46 2053.78 1611.87 2054.66 1610.28 2055.1 1608.56 2055.1 1606.71 2055.1 1605.94 2055.03 1605.26 2054.89 1604.66 2054.74 1604.06 2054.55 1603.56 2054.32 1603.17 2054.09 1602.78 2053.79 1602.43 2053.44 1602.12 2053.08 1601.82 2052.63 1601.55 2052.09 1601.33 2051.56 1601.11 2050.93 1600.95 2050.23 1600.85 2049.52 1600.75 2048.56 1600.7 2047.34 1600.7ZM2036.57 1598.34 2048.52 1598.34C2050.42 1598.34 2051.97 1598.45 2053.17 1598.67 2054.37 1598.9 2055.39 1599.23 2056.24 1599.68 2057.09 1600.13 2057.8 1600.7 2058.38 1601.41 2058.95 1602.12 2059.38 1602.91 2059.67 1603.8 2059.95 1604.69 2060.1 1605.63 2060.1 1606.63 2060.1 1609.39 2059.25 1611.74 2057.57 1613.67 2055.89 1615.6 2053.41 1617.07 2050.13 1618.07L2050.13 1618.37C2050.99 1619.01 2051.69 1619.78 2052.21 1620.68 2052.74 1621.57 2053.17 1622.82 2053.49 1624.41L2054.11 1627.53C2054.3 1628.51 2054.53 1629.4 2054.78 1630.19 2055.03 1630.97 2055.33 1631.6 2055.68 1632.07 2056.03 1632.53 2056.42 1632.88 2056.86 1633.11 2057.3 1633.35 2057.94 1633.53 2058.78 1633.68L2058.51 1634.99 2051.07 1634.99C2050.5 1633.4 2049.99 1631.5 2049.54 1629.3L2048.36 1623.61C2048.16 1622.62 2047.93 1621.79 2047.65 1621.12 2047.37 1620.45 2047.04 1619.93 2046.65 1619.56 2046.27 1619.2 2045.82 1618.96 2045.31 1618.84 2044.8 1618.72 2044.18 1618.67 2043.45 1618.67L2040.38 1618.67 2038.5 1627.18C2038.34 1627.88 2038.23 1628.43 2038.17 1628.84 2038.11 1629.26 2038.05 1629.69 2038.01 1630.15 2037.96 1630.6 2037.94 1631.01 2037.94 1631.37 2037.94 1631.92 2038.03 1632.36 2038.21 1632.67 2038.39 1632.98 2038.66 1633.21 2039.01 1633.36 2039.37 1633.5 2039.99 1633.61 2040.87 1633.68L2040.57 1634.99 2029.53 1634.99 2029.83 1633.68C2030.51 1633.57 2031.02 1633.4 2031.36 1633.15 2031.7 1632.91 2031.99 1632.58 2032.22 1632.15 2032.45 1631.72 2032.67 1631.19 2032.86 1630.58 2033.06 1629.96 2033.36 1628.76 2033.75 1626.99L2038.32 1606.31C2038.71 1604.52 2038.91 1603.11 2038.91 1602.07 2038.91 1601.19 2038.7 1600.58 2038.29 1600.24 2037.88 1599.9 2037.21 1599.71 2036.27 1599.65Z" fill-rule="evenodd"/><text fill="#000000" fill-opacity="0" font-family="Arial,Arial_MSFontService,sans-serif" font-size="36.6577" x="2029.53" y="1630.41">ğ‘…</text><path d="M2078.28 1628.9C2077.49 1628.9 2076.75 1629.14 2076.08 1629.61 2075.41 1630.09 2074.69 1630.77 2073.93 1631.65 2073.57 1632.07 2073.25 1632.48 2072.95 1632.88 2072.65 1633.29 2072.38 1633.73 2072.14 1634.2 2071.9 1634.68 2071.68 1635.2 2071.49 1635.78 2071.31 1636.36 2071.14 1637.03 2071 1637.79 2070.81 1638.68 2070.67 1639.44 2070.57 1640.05 2070.46 1640.66 2070.41 1641.24 2070.41 1641.79 2070.41 1642.84 2070.65 1643.59 2071.14 1644.03 2071.63 1644.46 2072.42 1644.68 2073.5 1644.68 2074.25 1644.68 2074.96 1644.51 2075.62 1644.18 2076.27 1643.85 2076.87 1643.4 2077.4 1642.82 2077.94 1642.25 2078.41 1641.58 2078.83 1640.82 2079.24 1640.06 2079.59 1639.25 2079.87 1638.38 2080.15 1637.52 2080.37 1636.63 2080.52 1635.71 2080.67 1634.8 2080.74 1633.92 2080.74 1633.06 2080.74 1631.67 2080.55 1630.62 2080.17 1629.93 2079.78 1629.24 2079.15 1628.9 2078.28 1628.9ZM2100.62 1628.21C2099.9 1628.21 2099.21 1628.38 2098.57 1628.7 2097.94 1629.03 2097.35 1629.48 2096.82 1630.05 2096.28 1630.62 2095.8 1631.3 2095.38 1632.08 2094.96 1632.86 2094.6 1633.7 2094.31 1634.6 2094.01 1635.5 2093.79 1636.44 2093.63 1637.41 2093.48 1638.39 2093.4 1639.37 2093.4 1640.34 2093.4 1641.84 2093.71 1642.94 2094.33 1643.65 2094.94 1644.36 2095.89 1644.72 2097.15 1644.72 2097.85 1644.72 2098.52 1644.55 2099.14 1644.2 2099.77 1643.86 2100.34 1643.39 2100.86 1642.8 2101.38 1642.22 2101.85 1641.53 2102.26 1640.74 2102.67 1639.96 2103.01 1639.11 2103.3 1638.21 2103.59 1637.32 2103.81 1636.39 2103.96 1635.43 2104.1 1634.47 2104.18 1633.54 2104.18 1632.63 2104.18 1631.18 2103.89 1630.09 2103.32 1629.34 2102.75 1628.59 2101.85 1628.21 2100.62 1628.21ZM2101 1626.28C2102.17 1626.28 2103.19 1626.47 2104.07 1626.85 2104.95 1627.23 2105.68 1627.74 2106.27 1628.38 2106.86 1629.03 2107.29 1629.78 2107.59 1630.66 2107.88 1631.53 2108.03 1632.46 2108.03 1633.45 2108.03 1635.43 2107.73 1637.22 2107.15 1638.83 2106.56 1640.44 2105.75 1641.82 2104.72 1642.97 2103.68 1644.12 2102.46 1645.01 2101.06 1645.64 2099.66 1646.26 2098.14 1646.57 2096.5 1646.57 2095.42 1646.57 2094.45 1646.41 2093.59 1646.09 2092.73 1645.76 2092.01 1645.29 2091.41 1644.68 2090.81 1644.07 2090.35 1643.33 2090.03 1642.46 2089.71 1641.6 2089.55 1640.62 2089.55 1639.52 2089.55 1637.67 2089.84 1635.95 2090.42 1634.34 2091 1632.73 2091.8 1631.33 2092.82 1630.14 2093.84 1628.95 2095.05 1628.01 2096.45 1627.32 2097.84 1626.63 2099.36 1626.28 2101 1626.28ZM2069.22 1626.28C2070.17 1626.28 2070.91 1626.6 2071.44 1627.23 2071.96 1627.86 2072.23 1628.69 2072.23 1629.72 2072.23 1630.02 2072.2 1630.3 2072.16 1630.58 2072.11 1630.85 2072.03 1631.12 2071.91 1631.4L2072.19 1631.54C2073.46 1629.75 2074.72 1628.43 2075.95 1627.57 2077.18 1626.71 2078.47 1626.28 2079.82 1626.28 2081.37 1626.28 2082.56 1626.84 2083.39 1627.96 2084.22 1629.08 2084.63 1630.71 2084.63 1632.86 2084.63 1634.74 2084.34 1636.51 2083.76 1638.17 2083.18 1639.83 2082.4 1641.28 2081.41 1642.53 2080.42 1643.78 2079.27 1644.77 2077.96 1645.49 2076.65 1646.21 2075.27 1646.57 2073.81 1646.57 2072.79 1646.57 2071.91 1646.47 2071.16 1646.27 2070.41 1646.07 2069.79 1645.83 2069.3 1645.54 2069.18 1646.05 2069.05 1646.57 2068.92 1647.12 2068.78 1647.67 2068.65 1648.2 2068.53 1648.7 2068.4 1649.21 2068.3 1649.68 2068.22 1650.11 2068.14 1650.54 2068.11 1650.88 2068.11 1651.14 2068.11 1651.38 2068.14 1651.57 2068.21 1651.73 2068.28 1651.89 2068.41 1652.02 2068.6 1652.12 2068.79 1652.23 2069.04 1652.31 2069.36 1652.37 2069.67 1652.42 2070.06 1652.47 2070.53 1652.51L2070.47 1653.8 2063.59 1653.8 2068.36 1633.45C2068.52 1632.73 2068.63 1632.13 2068.69 1631.65 2068.76 1631.17 2068.79 1630.74 2068.79 1630.36 2068.79 1629.41 2068.41 1628.94 2067.64 1628.94 2067.4 1628.94 2067.17 1628.99 2066.93 1629.08 2066.7 1629.18 2066.45 1629.33 2066.18 1629.52 2065.91 1629.72 2065.62 1629.97 2065.3 1630.27 2064.98 1630.57 2064.63 1630.92 2064.24 1631.32L2062.89 1630.05C2063.54 1629.4 2064.14 1628.84 2064.68 1628.36 2065.22 1627.89 2065.74 1627.5 2066.24 1627.19 2066.74 1626.88 2067.23 1626.66 2067.71 1626.51 2068.18 1626.36 2068.68 1626.28 2069.22 1626.28ZM2119.41 1621.73 2122.46 1621.73 2121.34 1626.69 2127.98 1626.69 2127.54 1628.86 2120.91 1628.86 2118.92 1637.04C2118.79 1637.59 2118.68 1638.08 2118.6 1638.52 2118.51 1638.95 2118.45 1639.35 2118.39 1639.7 2118.34 1640.05 2118.31 1640.37 2118.29 1640.66 2118.27 1640.94 2118.26 1641.21 2118.26 1641.46 2118.26 1642.24 2118.42 1642.85 2118.75 1643.29 2119.07 1643.74 2119.61 1643.96 2120.35 1643.96 2120.97 1643.96 2121.64 1643.73 2122.34 1643.26 2123.04 1642.8 2123.84 1642.08 2124.74 1641.09L2126.09 1642.45C2125.43 1643.2 2124.79 1643.83 2124.2 1644.35 2123.6 1644.87 2123.01 1645.29 2122.44 1645.63 2121.86 1645.96 2121.3 1646.2 2120.74 1646.35 2120.18 1646.5 2119.61 1646.57 2119.02 1646.57 2117.47 1646.57 2116.31 1646.21 2115.55 1645.48 2114.79 1644.75 2114.41 1643.68 2114.41 1642.26 2114.41 1641.78 2114.45 1641.25 2114.52 1640.67 2114.59 1640.09 2114.69 1639.52 2114.82 1638.98L2117.14 1628.86 2113.79 1628.86 2114.18 1627.36C2114.96 1627.36 2115.57 1627.28 2116 1627.13 2116.44 1626.98 2116.81 1626.78 2117.11 1626.52 2117.3 1626.33 2117.49 1626.11 2117.67 1625.84 2117.85 1625.57 2118.04 1625.25 2118.22 1624.88 2118.4 1624.5 2118.59 1624.05 2118.78 1623.54 2118.96 1623.02 2119.18 1622.42 2119.41 1621.73Z" fill-rule="evenodd"/><text fill="#000000" fill-opacity="0" font-family="Arial,Arial_MSFontService,sans-serif" font-size="32.0703" x="2062.89" y="1649.79">ğ‘ğ‘œğ‘¡</text><path d="M1955.06 927.143 1955.06 812.417 1961.94 812.417 1961.94 927.143ZM1944.75 817 1958.5 789.5 1972.25 817Z" fill="#C55A11"/><path d="M2006.94 788.5 2006.94 904.592 2000.06 904.592 2000.06 788.5ZM2017.25 900.009 2003.5 927.509 1989.75 900.009Z" fill="#C55A11"/><path d="M1954.06 614.143 1954.06 499.417 1960.94 499.417 1960.94 614.143ZM1943.75 504 1957.5 476.5 1971.25 504Z" fill="#C55A11"/><path d="M2005.94 475.5 2005.94 591.592 1999.06 591.592 1999.06 475.5ZM2016.25 587.009 2002.5 614.509 1988.75 587.009Z" fill="#C55A11"/><text font-family="Arial,Arial_MSFontService,sans-serif" font-weight="400" font-size="55" transform="matrix(1 0 0 1 1825.24 368)">Customizable<tspan font-size="55" x="30.3645" y="66">Interface</tspan>s</text></g></svg>